<svg width="393" height="123" viewBox="0 0 393 123" fill="none" xmlns="http://www.w3.org/2000/svg">
<path d="M0.625186 117.222C0.625186 117.222 62.4637 68.0186 73.4169 71.8884C84.3752 75.7634 113.057 30.5916 122.078 38.0134C131.099 45.4353 133.037 59.3051 142.38 53.1801C151.724 47.0447 204.255 -10.0647 214.568 1.55511C224.88 13.1697 248.729 45.4353 260.974 43.1749C273.219 40.9197 278.052 58.5603 286.75 58.6124C295.453 58.6645 304.797 34.4666 313.823 40.2686C322.844 46.0811 334.771 57.6957 344.433 66.0864C354.104 74.4718 398.255 118.675 391.808 117.222C385.36 115.769 375.052 97.7009 361.516 97.3832C347.979 97.0603 344.433 91.8989 352.813 100.607C361.193 109.321 372.151 121.258 356.683 108.352C341.214 95.4457 339.281 98.6749 327.031 87.378C314.787 76.0864 316.401 69.9561 302.542 68.0186C288.682 66.0864 283.693 63.3416 290.781 71.0864C297.87 78.8311 302.38 85.4405 302.38 85.4405C302.38 85.4405 310.115 97.0603 299.156 85.4405C288.203 73.8259 284.334 69.6332 279.985 68.0186C275.63 66.4041 272.573 58.1801 272.412 57.0499C272.25 55.9197 271.281 46.727 264.031 46.727C256.781 46.727 254.526 46.8884 254.526 49.6332C254.526 52.3728 247.276 49.1436 245.021 47.2114C242.766 45.2739 211.828 3.33115 209.089 8.33115C206.349 13.3311 207.959 13.4926 207.959 17.6853C207.959 21.8832 216.985 27.0447 220.688 34.4666C224.396 41.8832 220.203 34.7843 224.88 43.9822C229.552 53.1801 234.063 56.5655 222.781 48.6593C211.505 40.7582 208.125 28.1749 203.125 30.2686C198.13 32.3676 202.323 31.5603 199.745 38.4978C197.167 45.4353 202.156 38.4978 202 48.4978C201.839 58.503 216.662 56.003 224.396 68.102C232.13 80.1957 234.302 81.1697 240.828 85.0395C247.354 88.9093 255.573 95.4457 248.323 91.8155C241.073 88.1853 227.537 86.9718 220.771 81.4093C214 75.8416 211.344 78.0239 210.62 83.5864C209.896 89.1541 221.011 87.2166 220.047 92.5395C219.078 97.8676 224.151 96.1697 236 110.206C247.839 124.243 250.255 122.545 238.896 117.222C227.537 111.899 225.604 103.914 214 101.013C202.401 98.1072 201.672 95.4457 189.11 92.0551C176.542 88.6697 184.755 108.029 174.604 98.1072C164.453 88.1853 151.646 74.3936 144.636 70.5239C137.625 66.6489 137.87 69.5499 131.584 63.7426C125.302 57.9405 120.948 54.227 123.61 60.5603C126.266 66.8884 131.828 72.4561 134.969 79.4718C138.11 86.4926 134.245 84.4353 136.542 87.8207C138.834 91.2114 139.922 91.9353 140.891 94.9614C141.86 97.9874 141.735 98.227 138.235 94.7218C134.729 91.2114 133.276 91.0916 132.917 88.6697C132.552 86.2478 132.552 89.1541 126.75 85.2843C120.948 81.4093 118.292 79.1124 112.005 77.5395C105.724 75.9666 107.297 72.3364 103.672 75.1176C100.047 77.9041 99.9221 74.6332 98.7137 78.7478C97.5054 82.8624 103.427 81.2895 106.573 85.7634C109.714 90.2426 105.24 87.9457 114.787 94.9614C124.334 101.977 119.38 100.039 124.453 104.519C129.531 108.998 133.521 108.998 136.542 114.081C139.563 119.159 143.547 125.935 137.625 119.644C131.709 113.352 130.979 112.628 124.938 112.144C118.896 111.659 117.927 115.649 113.339 111.175C108.745 106.696 95.0887 107.545 89.2866 101.133C83.4898 94.7218 78.7762 85.8832 69.3491 89.7582C59.9221 93.628 53.521 85.6436 49.5314 90.8468C45.5419 96.0499 49.0471 91.3311 54.4846 97.6228C59.9221 103.914 61.8596 102.706 63.0679 105.248C64.2762 107.789 64.2762 105.972 58.4741 103.914C52.6721 101.857 55.4533 101.133 52.6721 101.857C49.8908 102.581 44.2137 92.9041 32.7346 100.524C21.2502 108.149 24.6356 101.857 16.5419 107.305C8.44289 112.748 -2.47898 121.701 0.625186 117.222Z" fill="#100F0D"/>
</svg>
